<svg width="57" height="57" viewBox="0 0 57 57" fill="none" xmlns="http://www.w3.org/2000/svg">
<path d="M56.2007 5.7458V50.3845C56.2007 53.5581 53.6252 56.1303 50.4475 56.1303H27.2775C19.2764 56.1303 12.1673 50.9708 9.78688 43.3715C9.74901 43.2505 9.71303 43.1294 9.67704 43.0084C9.63917 42.8779 9.60319 42.7493 9.56721 42.6169C9.49714 42.3559 9.43086 42.093 9.36836 41.8282C9.30587 41.5634 9.24716 41.2968 9.19603 41.0301C9.16952 40.8958 9.14301 40.7615 9.12028 40.6253C9.12028 40.6235 9.12028 40.6216 9.12028 40.6197C9.09566 40.4873 9.07294 40.353 9.05211 40.2206C9.02938 40.0844 9.00855 39.9483 8.98962 39.8121C8.97068 39.6797 8.95363 39.5473 8.93659 39.4149C8.9347 39.4017 8.9328 39.3884 8.93091 39.3752C8.91576 39.2466 8.90061 39.118 8.88735 38.9894C8.87599 38.8816 8.86463 38.7719 8.85516 38.6641C8.84758 38.5827 8.84001 38.4995 8.83433 38.4163C8.82486 38.3236 8.81728 38.2309 8.8116 38.1364C8.80403 38.0324 8.79835 37.9302 8.79267 37.8262C8.78698 37.7316 8.7813 37.6371 8.77752 37.5425C8.77183 37.4423 8.76805 37.3401 8.76615 37.2399C8.76047 37.1113 8.75858 36.9846 8.75668 36.856C8.75479 36.7274 8.7529 36.5987 8.7529 36.4701C8.7529 36.3699 8.7529 36.2678 8.75479 36.1675C8.80592 31.7551 9.56342 27.9176 11.0292 24.6551C12.5461 21.2735 14.6955 18.6616 17.4736 16.8175C19.6457 15.3782 22.1398 14.5007 24.9558 14.1867C24.9558 14.1848 24.9577 14.1848 24.9596 14.1848C25.7436 14.0978 26.5522 14.0543 27.3874 14.0543C31.3567 14.0543 34.8241 15.07 37.7916 17.0974C40.7004 19.0871 42.7419 22.2324 43.9236 26.5313C43.9633 26.6826 44.0997 26.7885 44.2569 26.7885C44.4481 26.7885 44.6034 26.6334 44.6034 26.4443V26.4235L44.0997 16.2709L44.0713 15.7187C44.0656 15.5976 43.9974 15.4879 43.8914 15.4293C43.8914 15.4293 43.8895 15.4274 43.8857 15.4255C43.88 15.4236 43.8762 15.4199 43.8705 15.4161C43.2437 14.9981 27.9422 5.05736 10.8057 15.3007C10.7338 15.3423 10.6618 15.3858 10.5898 15.4293C10.5103 15.4766 10.4326 15.5239 10.355 15.5712C8.45558 16.7438 6.78908 18.1301 5.35362 19.7301C4.36887 20.8271 3.49396 22.0262 2.727 23.3255C1.88617 24.7516 1.20253 26.2741 0.677962 27.893C0.554869 28.2694 1.04368e-06 28.1843 1.04368e-06 27.789V5.7458C-0.0018927 2.57218 2.5736 0 5.75131 0H50.4475C53.6252 0 56.2007 2.57218 56.2007 5.7458Z" fill="#F1EAE2"/>
</svg>
